<svg xmlns="http://www.w3.org/2000/svg" viewBox="0 0 519.2 6.44"><defs><style>.cls-1{fill:#fff;}</style></defs><title>chalk-border-1</title><g id="Laag_2" data-name="Laag 2"><g id="Laag_1-2" data-name="Laag 1"><path class="cls-1" d="M519.07,3.21H517.9Z"/><path class="cls-1" d="M514,3.22c-.89,0-1.91.06-1.34.09l2-.08c.75,0,1.31,0,1.19,0l1.57,0c-1,0-2.22,0-3.52,0C513.67,3.23,513.94,3.22,514,3.22Z"/><path class="cls-1" d="M440.41,2.69l.47,0A3.06,3.06,0,0,0,440.41,2.69Z"/><path class="cls-1" d="M394.8,2.22c.35,0,.5-.06.51-.11C395,2.15,394.73,2.18,394.8,2.22Z"/><path class="cls-1" d="M387,1.61l.46,0A.83.83,0,0,0,387,1.61Z"/><path class="cls-1" d="M440.41,2.69l-1.22-.13C439.1,2.68,439.81,2.66,440.41,2.69Z"/><path class="cls-1" d="M503.86,3.45l.66,0-.62,0Z"/><path class="cls-1" d="M460.51,2.55h.37a1.66,1.66,0,0,0,.31-.12Z"/><path class="cls-1" d="M475.94,2.66c-.35,0-.47.18-.61.27a2.31,2.31,0,0,1,.76-.13S476.05,2.72,475.94,2.66Z"/><path class="cls-1" d="M500.4,3.11h0Z"/><path class="cls-1" d="M449.47,2.39a.4.4,0,0,0-.14-.11S449.38,2.36,449.47,2.39Z"/><path class="cls-1" d="M18,3.65s0,0,0,0S17.84,3.64,18,3.65Z"/><polygon class="cls-1" points="0.07 3.21 0.32 3.21 0.37 3.21 0.07 3.21"/><path class="cls-1" d="M372.77.91h.06C373.21.87,373,.88,372.77.91Z"/><path class="cls-1" d="M242,.9c1.48.5-2.41.64-.18,1.19C241.57,1.88,243.81,1.22,242,.9Z"/><path class="cls-1" d="M503.46,3.45h0Z"/><path class="cls-1" d="M241.78,2.09h0l.23,0Z"/><path class="cls-1" d="M339.94,1a1,1,0,0,0,.33.23C340.26,1.17,340.19,1.11,339.94,1Z"/><path class="cls-1" d="M364.4,1.83l-.61-.07A3.93,3.93,0,0,0,364.4,1.83Z"/><path class="cls-1" d="M327.24,1.69a2.3,2.3,0,0,0-.89,0l.13.06A1.22,1.22,0,0,1,327.24,1.69Z"/><path class="cls-1" d="M314,1.66a1,1,0,0,0,.24.11l.42,0Z"/><path class="cls-1" d="M58.13,4.28A2.55,2.55,0,0,1,57.52,4C57.72,4.22,55.78,4.26,58.13,4.28Z"/><path class="cls-1" d="M503.85,3.41a2.19,2.19,0,0,1-.39,0h.44S504,3.42,503.85,3.41Z"/><path class="cls-1" d="M326.7,5.88l-2.1-.06C325.19,5.86,326,5.89,326.7,5.88Z"/><path class="cls-1" d="M153,5.17l-.48.06A1,1,0,0,0,153,5.17Z"/><path class="cls-1" d="M318.37,5.92a4.15,4.15,0,0,0-1.18-.37,1.17,1.17,0,0,0-.25.14Z"/><path class="cls-1" d="M57.51,4h0Z"/><path class="cls-1" d="M43.68,4.35c2,.05.94-.24,1.36-.39,2.39,0,1.11.22,1.92.37,1.49,0,2.64-.29,3.75-.26.08,0,.3.07,0,.13,1.58-.22,4.69.06,6.52-.24a.56.56,0,0,1,.24.08c-.3-.17-.34-.34-.28-.45.9,0,1.66-.21,2,0a1.84,1.84,0,0,0-.85.15l.94-.09C60.17,4,58,3.76,58,4c1.83-.08,4-.34,5.37-.23.29.32-3.28.08-1.41.38L59.83,4c1.66.52-1.32-.05.2.5,2.86.14,3.2-.11,6,0,.65-.18-.21-.28.43-.46,4.06-.32,3.19.91,6.18.48a4.88,4.88,0,0,1,3.19-.43l-.72.42c2.76.07,1.58-.6,4.48-.28-.52.16-2.18.12-1.76.17,1.88.37,1.33-.23,2.77-.21l.3.39c3,0,6.2-.28,9.46-.34-.18.13-.74.25,0,.39a107.74,107.74,0,0,1,12.76.47l1.51-.39c.36,0,.66.19.28.27,1.55.17.08-.26.82-.41s1.16.24.61.36c2.73-.31,7.78-.7,10.66-.22l-.57.12c2.25.2,2.53-.87,4.61-.45l-.4.07c4.87.23,10.24-.16,13.95.57.71-.68,4.82.34,5.13-.62,2.78.49,2,.66,5.89,1,1.05,0,1.56-.6,2.85-.7l0,.52,1.76-.54.93.63,1.21-.12c-.48,0-1-.25-.95-.4,1.89-.23,4.61.4,4.66.67l4.48-.42c-.1.21-.85.28-1.45.42,2.39-.54.44.57,2.63.08-.29-.13.16-.32.21-.43a19.83,19.83,0,0,0,5.41.22l-.35.38c3.32.12,7-.14,10.73-.11-1.34-.19-1-.86.06-.92l.44.59c.7-.36-1.15-.23.3-.67,1.4.07.94.68.14.87l1.69-.2c.1.18-.3.28-.4.5.7-.37,2.92.63,3.92,0l.1.18c3.73,0,5.42-.18,8.45-.19.06-.53,1.25-.41,2.15-.84a72,72,0,0,0,7.39.57c1.89-.26.55-.45,1.4-.77.14.49,2.83.45,1.43.8a79.94,79.94,0,0,0,8.2-.48c-.44-.2-.94-.29-.68-.46.74-.08,1.68.21,1.58.45l-.2,0c4.58-.74,10.57,1.49,14.21.45l-.2,0,3.78-.54c1.74.09-1,.38.24.69,4.08-.84,6.45.13,9.81-.43,2.6,1.51,9.22-.1,12.73.87l-.2-.36c.9-.35,1.09.21,1.76.29-.09-.28-1-.32-.42-.52,7.68-.42,15.86.52,23.73.83,2.89.09,1.64-1.83,5.27-1l-1,.66c5.81-.8,11.89,0,17.58-.67-.34.15-.35.34-.91.34,1.21.47,4.45,0,4.47-.37.89,0,.2.34.75.54,1.21.27,3-.61,3.67-.15.11.08-.34.15-.56.19.78-.23,3.66,0,2.91-.49,2.13.25,4.08-.25,5.79.06,1.11-.59,3.65.28,4-.56-.16.86,3.74.68,5.09.27-.45.26,1.17.26.65.62,1.54,0,2.95-.18,2.68-.62,2.84,1,5.71-.83,7.31.45,4.57-.47,8.81-.79,12.93-1-.15.82-4.55.11-4.38,1,3.91-.37,6.16-1.07,10-.89,1,.1-.57.35-.91.49,3.9-.35,7.55,0,11-.42,0,.07-.38.15-.74.21.69,0,1.59.11,1.52-.24l-.67.1c-1.09-.51,2.72-1.08,2.84-1.35-1.16,1,3.43.24,1.58,1.51.46-.07,1-.23.92-.47.67.07.88.2.2.47,2.45-.2,1.58-.56,3.8-.57,0,.17-.45.23-.68.43a10.39,10.39,0,0,1,4.13-.53c-.12.1.1.23-.46.23,3.23-.07,5.5-.86,9-.57-1,.69,1.21.22,1.39.81l1.91-.19-.77-.28c1.67,0,3.14-.43,4.57-.25L393,4.42l3.12-.13-1.77-.21c1.69-.3-.18-.72,2-.57a20,20,0,0,1,2.53.34h0a8.22,8.22,0,0,1,2.9-.24c.32.18-.26.62-.05.74.81-.47,3.9-.15,4.93-.64-.34.11-.36.4-.25.46l.69-.37c.77.11.88.17.76.39,2.32.06-.74-.67,2-.39a3.45,3.45,0,0,1-.56.14c2.77.13,5.35-.25,7.89-.09.75.51-2.22.14-1.36.57,3.66-.13,7.59-.65,11.13-.55l-.66-.05c.49-.67,2.64.32,4.44,0-.44.05-.58.36-.46.29,2.43.09,5-.2,8.65-.4l-.46.15c1.44.14,3.77.06,5.32.12.46-.15,1.34-.13.81-.35,4.77.79,9.09-.46,13.32.16-.5,0-1.2.12-.8.12l3.6-.15c-.28-.2-.47-.12-1.22-.28a10.73,10.73,0,0,1,2.36-.23c-1.62.14,0,.34.72.45-.12-.07.12-.14.06-.2,1.88.35.31-.41,2.88-.17l-.13.1c1-.05,1.85-.19,2.88-.16.43.22-1,.1-1.09.29a25.36,25.36,0,0,1,4.2-.21c-.62.06-1.51.06-2.13.12a13.14,13.14,0,0,0,2.67.21h-.1l2.46.09-.63-.06c1.83-.52,3.72-.12,6.17-.44-2.38.3-.39.17-.57.37.62.05,1.58.1,1.3.16,1.17-.17,1.94.09,3.58-.14.07.05,1.24,0,1,.13,1.51-.06-.36-.09-.23-.16,2.33-.2,5.47.14,8.82-.12,2.88-.11,3.42-.25,6.09-.3.91,0-.74.13-.74.13,1.46,0,2.56,0,3.93,0-.28,0,0,0,.43.07,1.1,0,.74-.1,2.19-.07-.25,0-.57.07-1.1.11l3.93-.12a7.44,7.44,0,0,1-1.29.09c1.51,0,3.92-.08,4.39-.13h-1c.55,0,.28,0-.13,0a10.57,10.57,0,0,1-1.94,0l1,0c-1-.11-3.85,0-5.78.05l.81-.12-2,.11c-.42,0-.71-.11.24-.13-1.38-.07-1.22.05-2.41,0-.13,0-.07,0,0,0l-1.35,0c.26,0-.23-.11.6-.08-2.42-.11-3.91.1-4.82,0h.2c-3.36,0-.32.13-2.84.29L490.49,3l-.33.16c-.35,0-1,0-.91-.09-1.29.11.22.07-.53.17-1.67-.15-4.6.08-5-.21-.6.13,1.6.11-.19.2-.51-.32-2.06,0-3.58-.1.46-.18,1.91-.07.38-.24-.92.3-3-.09-4.26,0-.06.26-2.79.09-4.95.17.13-.09-4.07-.18-6.08-.31l.06-.05c-.39.31-2.46.24-4,.31.06-.2.33-.28,1.15-.36h-1.42a6.86,6.86,0,0,1-1.7.19l.36-.25c-1.89,0-3.8.28-6.23.08-.14.26,1.93.71-.64.88-.1-.14-.19-.38.48-.43a5.57,5.57,0,0,1-1.23,0l1-.23c-1.11-.1-.58.2-1.46.17,0-.2-.66-.14-.53-.3a8,8,0,0,0,1.11,0,11.48,11.48,0,0,1-2.6-.33c.08.12,0,.28-.73.3-1.89,0-.65-.26-1.75-.37-.46.14-1.66,0-1.69.3a1.5,1.5,0,0,1-.87-.25c-1,.14-4.57,0-3.47.37l.25,0-.16,0h0c-3.2.33-6.65-.22-9.83-.09V2.57c-1.9.13-4.23.06-5.58.33-.56,0-1.32-.24-1.08-.39a14.09,14.09,0,0,1-3.71,0c1.46-.22-.51-.2,1.49-.16a13.39,13.39,0,0,0-4.33,0c.69-.33-1.42-.44-2.32-.34l1.32.26c-1,0-1.88,0-2.78,0l.48-.46c-3.85-.61-7,.93-9.88-.06-1,.33,2.09.25,1.18.64a33.86,33.86,0,0,1-4.18-.8c-2.43-.29-2.27.71-4.81.51.33.18.63.66-1.27.83-1.77-.07-2.18-.77-1.06-.91.43,0,.63,0,.61.1.58-.06,1.33-.13.63-.33l-.23.18c-.88-.19-3.33-.19-2.75-.49-1.34.17-.58.3.42.4-2.28-.28-3.56,0-5.9-.23.37.11.71.33.34.33-3.44-.25-1.51.35-3.84.43-1.32-.3.47-.7-1.87-.47-1.43-.2-.3-.51.27-.66-2.14.36-4-.28-5.22-.36l1.13-.15a12.52,12.52,0,0,1-1.79.08l.65.4c-.66-.08-1.22-.08-1.21-.25-.68.26.52.66-.83,1-.88-.21-2.68.2-3-.33,2.77.2-.3-.53,2-.6a7.25,7.25,0,0,1-1.67,0c-.09-.06.1-.11.28-.14-2.65-.5-1.22.59-4,.56.35-.3-.63-.58-1.08-.51,1.11,0,.53.5-.49.73-1.76-.24-1.91.17-2.83.14l1.05.11c-.36.31-1.24.27-2.47.36-.1-.24,1.12-.16.68-.27-1.36.54-3.08-.57-5-.22-.88-.21-.09-.58-.86-.73-2.13.4-2.31-.45-4.55-.12.65.43.76.32-.81.73l3.68-.28L353.77,2c1.12,0,2.35-.26,3-.19-1.12.34-1,.24-.47.59-1.52-.64-3,.37-4.77-.07l0-1.06c-2.64-.49-4.7.53-8.13.25l1.11.19c-.46.42-2.12.05-3.23.22.1-.36-.59-.49-1.07-.72.06.27-2.51,0-2.82.69l-1.53-.49c-2.77-.21-3.16,1-5.83.91.81-.4-.4-.66,1.38-.95-.89,0-1.69-.07-1.7.18-.52-.23-2.47.5-3.29.14-.37.17-.49.56-1.49.52-.11-.07,0-.18,0-.18,0,.18-1.56.25-.69.66-2.74-1.17-7.65.08-10-.94-1.94.13-4.27.25-6,.27.12-.11,0-.19.34-.15-2.43-.36-1.49,1.1-4.26.7-1.41-.62,1.47-.33.59-.57-.38-1.27-3.33.17-5.2-.58l.46-.07c-1.43-.44-3.47.48-5.8.38,0,0,.11-.11,0-.19-1.59.65-4.6.86-6.84,1,.7-.51,1-.27.59-.78-1,.07.3.82-1.7,1-.65-.27-2.1-.52-2.29-1.06l1.89,0c-1-.71-2.44,0-3.44-.1l.13-.31c-2.89.1-2.93.88-6,.82l.32.23c-1.7.78-1.42-.43-3.12.14l-.51-.78c-1.12.19-3.92.76-5.93.91a27.24,27.24,0,0,1,4.94-1.23c-1.11,0-3.77.05-4.35.44a3.8,3.8,0,0,1,1.45-.15,12.78,12.78,0,0,1-5.37.91c.39-1.53-5.77-.38-7.37-1.57-3.92.57-7.77-.24-12.33-.14,1.62,1.18-1.33,0-1.05,1.25-1.07.08-1.47.06-1.57,0l-3.22-.72c-.76-.36,1-.27.92-.55C237.15.74,238.5.32,237,0c.32.43-.81.62-2.13.46l1.86.56c-3.25.65-2.81-1-6.08-.37l1-.39c-1.68.23-6.2,0-7.85,1-.3-.14-.69-.46.05-.55-4-.14-9,1-12.07.46l.31-.3c-.75.09-1.31.55-2.25.26,0-.12.3-.29,0-.3a8.87,8.87,0,0,1-3,.34l.85-.32c-3.92-.37-6,.8-9.3,1,0-.84-3.08-1.1-4.62-1.23l.06-.12c-4.57-.08-7.76.72-12,1.06-2.63-.87-8.89-.34-13.11-.79.64.14-.11.61-.85.7-1-.16-2.74.55-2.58-.17l.35,0c-.75-.7-2.78-.5-4.37-.51l-.26.93c-4.15-1.31-10.88.53-13.15-.63-1,.23-2.24.24-3.24.47l.06-.48c-2.78-.1-4.17-.14-7.6,0l.7-.34c-1.94,0-2.45,1.34-4.23,1.37L133,1.45c-3.38,0-6.8-.51-10.14.11.06-.09.16-.28.71-.31-1.59,0-6.15-.36-5.58.49,0-.56-3.48,0-5.31.23l.29-.41a9.73,9.73,0,0,1-3.74.82c-.51,0-.45-.31.23-.22-1.7-.19-1.33.38-3.38.18l.76-.25a5.26,5.26,0,0,0-2.57.4c-1.1.16-3.31-.08-3.57-.41a3.7,3.7,0,0,1-2.22.39c-.14-.12.23-.2.42-.24-2.92-.23-4.34.45-6.35.11,0-.12-.17-.18-.34-.21,2.32,0,4.19,0,4,0,0-.33-1.88-.37-.39-.85a26.5,26.5,0,0,1-5.9.7,1,1,0,0,1-.25-.11l.19,0a5.3,5.3,0,0,0-1.15.06c-.58,0-1-.08-1.51-.07-.22-.26-2.15-.12-3.09-.12.08.34-1.15.29,0,.56-.15,0,.18,0,.8-.06a3.58,3.58,0,0,0,.4,0l-.07,0,2.33,0A5.8,5.8,0,0,1,85,2.32c-.48.22-1,.44-1.3.54-1.28-.46-3.75-.68-4.09-.95-2.85.21-6.72.2-8.52.77a2,2,0,0,1-1.23-.24,10.16,10.16,0,0,0,1.27-.14c-1.62.16-4.8.1-5.19.47-2-.15,1.15-.34-1.66-.26l.38-.11a37.15,37.15,0,0,0-7.33.21,40.47,40.47,0,0,1-7.79.09,3.1,3.1,0,0,1,.73.09c-3.5-.1-7.1,0-10.69.06s-7.16.09-10.61,0A23,23,0,0,0,25.63,3l-.42-.13-2.05.16c-2.9.1-5-.21-8.69,0l.47,0c-1.32,0-4.17.06-3.95,0a8.71,8.71,0,0,1-1,0l0,0-3.24.07c-2.51,0,.39-.09-3.27,0L.12,3.21h.2c-.23,0-1.18,0,1.87,0l2.14,0,.68,0-1.79,0c1,0,1.66.05,2.38.05l.9,0,2.09,0c.25,0-.94,0,.46.09,1,0-.94-.09.69-.09a14.09,14.09,0,0,0,1.91.07c.17,0-.08.05-.55.05,1.06,0,2.81,0,3.36,0,1.07.1,3.6,0,3.49.18.34,0,1.88-.08,2.86-.08-1.79.17,3.66.07,3.19.3,1.32-.17,4.78,0,7.12-.09a2.65,2.65,0,0,1-.6,0c1.32,0,1.71.13,2.55.2.17-.22,2.23-.24,3.33-.38,1.62.25-1,.27-.47.49-.08-.19,2.81-.14,2.26-.32a6.06,6.06,0,0,1,1.7.31c.22-.32,1.15,0,2.18-.22,1.79.19.46.33,2.42.25C45.43,4.26,43.68,4.35,43.68,4.35Zm46.74-.2h0l-1,0Zm3.93,0c-.48,0-1.08,0-1.71,0-.14-.12,0-.25.41-.24C92.83,4,93.76,4.06,94.35,4.17ZM86,1.76c.62-.05.83,0,.91.08l-1.09,0-.07.05A.62.62,0,0,1,86,1.76Z"/><path class="cls-1" d="M84.92,2.22l-.26,0,.37.08.22-.11Z"/><path class="cls-1" d="M441,2.74h-.08l.17,0Z"/><polygon class="cls-1" points="148.58 5.38 148.57 5.26 148.23 5.36 148.58 5.38"/><path class="cls-1" d="M462.6,3.7a1,1,0,0,0,.28.06A.9.9,0,0,0,462.6,3.7Z"/><path class="cls-1" d="M471.94,3.68l1.32.06C472.69,3.7,472.27,3.69,471.94,3.68Z"/><path class="cls-1" d="M479.12,3.71a.37.37,0,0,0,.15-.08h0Z"/><path class="cls-1" d="M364.89,5.07a2.4,2.4,0,0,0-.28,0C364,5.2,364.41,5.16,364.89,5.07Z"/><path class="cls-1" d="M398.89,3.85c-.36.08-.72.15-1.1.2C398.4,4.08,398.87,4.09,398.89,3.85Z"/><path class="cls-1" d="M326.93,5.89h0Z"/><path class="cls-1" d="M396.21,4.05a5.55,5.55,0,0,0,1.58,0A10.42,10.42,0,0,0,396.21,4.05Z"/><path class="cls-1" d="M510.26,3.36h0Z"/><path class="cls-1" d="M510.65,3.35h0Z"/><path class="cls-1" d="M511.84,3.32l-.8,0Z"/><path class="cls-1" d="M500.75,3.46l-.11,0C500.7,3.49,500.74,3.48,500.75,3.46Z"/><path class="cls-1" d="M497.86,3.51c.69,0,1.73.06,2.69,0l.09,0C500.19,3.56,498.52,3.44,497.86,3.51Z"/><path class="cls-1" d="M485.8,2.94l2.42.06c-.42-.06-1-.15.12-.15C485.29,2.64,489,3,485.8,2.94Z"/><path class="cls-1" d="M478.29,2.78c1.3,0,0-.11,0-.15C477.52,2.69,477.32,2.7,478.29,2.78Z"/><path class="cls-1" d="M424,2.38l.13-.33C423.15,2.09,424.14,2.18,424,2.38Z"/><polygon class="cls-1" points="413.64 4.16 414.62 4.37 415.09 4.04 413.64 4.16"/><polygon class="cls-1" points="407.52 1.57 407.95 1.52 406.28 1.64 407.52 1.57"/><path class="cls-1" d="M316.37,1.19l.3.61C317.35,1.69,317.49,1,316.37,1.19Z"/><path class="cls-1" d="M277,1.76a2.64,2.64,0,0,0-2.21-.21A20.41,20.41,0,0,0,277,1.76Z"/><polygon class="cls-1" points="159.02 1.04 159.81 0.85 158.32 1.01 159.02 1.04"/></g></g></svg>