<svg xmlns="http://www.w3.org/2000/svg" viewBox="0 0 519.2 5.95"><defs><style>.cls-1{fill:#fff;}</style></defs><title>chalk-border-1_1</title><g id="Laag_2" data-name="Laag 2"><g id="Laag_1-2" data-name="Laag 1"><path class="cls-1" d="M519.07,3.33c.28,0,.12-.06-.63,0l-.54.09Z"/><path class="cls-1" d="M514,3.22c-.89,0-1.91.19-1.34.3.88-.14,1.09-.1,2-.24.75,0,1.31,0,1.19.06.26,0,1.17,0,1.57-.06a29.78,29.78,0,0,0-3.52,0C513.67,3.27,513.94,3.24,514,3.22Z"/><path class="cls-1" d="M440.41,2.39l.47.07A2,2,0,0,0,440.41,2.39Z"/><path class="cls-1" d="M394.8,1.83c.35,0,.5-.08.51-.15C395,1.73,394.73,1.77,394.8,1.83Z"/><path class="cls-1" d="M387,1l.46,0A.64.64,0,0,0,387,1Z"/><path class="cls-1" d="M440.41,2.39l-1.22-.2C439.1,2.39,439.81,2.34,440.41,2.39Z"/><path class="cls-1" d="M503.86,3.74a5.58,5.58,0,0,0,.66-.07l-.62,0Z"/><path class="cls-1" d="M460.51,2.11h.37a2,2,0,0,0,.31-.19Z"/><path class="cls-1" d="M475.94,2.23c-.35,0-.47.33-.61.48a1.48,1.48,0,0,1,.76-.23C476.1,2.42,476.05,2.34,475.94,2.23Z"/><path class="cls-1" d="M500.4,3l.43,0Z"/><path class="cls-1" d="M449.47,1.9a.39.39,0,0,0-.14-.17C449.33,1.79,449.38,1.84,449.47,1.9Z"/><path class="cls-1" d="M18,4.18s0,0,0,0S17.84,4.18,18,4.18Z"/><path class="cls-1" d="M.07,3.19H.32s0,0,0,0Z"/><path class="cls-1" d="M372.77.26h.06C373.21.2,373,.21,372.77.26Z"/><path class="cls-1" d="M242,2.24c1.48.19-2.41.29-.18.5C241.57,2.65,243.81,2.35,242,2.24Z"/><path class="cls-1" d="M503.46,3.73h0Z"/><path class="cls-1" d="M241.78,2.74h0l.23,0Z"/><path class="cls-1" d="M339.94.8a.86.86,0,0,0,.33.24C340.26,1,340.19.92,339.94.8Z"/><path class="cls-1" d="M364.4,1.5l-.61-.08A4.1,4.1,0,0,0,364.4,1.5Z"/><path class="cls-1" d="M327.24,1.66a2.32,2.32,0,0,0-.89,0l.13.06A1.2,1.2,0,0,1,327.24,1.66Z"/><path class="cls-1" d="M314,1.74a1.73,1.73,0,0,0,.24.1l.42,0Z"/><path class="cls-1" d="M58.13,5a2.14,2.14,0,0,1-.61-.39C57.72,4.87,55.78,5,58.13,5Z"/><path class="cls-1" d="M503.85,3.64a.92.92,0,0,1-.39.09l.44,0S504,3.66,503.85,3.64Z"/><path class="cls-1" d="M326.7,5.89l-2.1-.1C325.19,5.85,326,5.89,326.7,5.89Z"/><path class="cls-1" d="M153,4.67l-.48.06A1.34,1.34,0,0,0,153,4.67Z"/><path class="cls-1" d="M318.37,5.81a4.9,4.9,0,0,0-1.18-.37.84.84,0,0,0-.25.13Z"/><path class="cls-1" d="M57.51,4.57h0Z"/><path class="cls-1" d="M43.68,5.24c2,.06.94-.45,1.36-.71,2.39-.1,1.11.37,1.92.64,1.49-.1,2.64-.54,3.75-.5.08.08.3.12,0,.22,1.58-.39,4.69.06,6.52-.46a.52.52,0,0,1,.24.14.73.73,0,0,1-.28-.75c.9,0,1.66-.34,2,0a1.31,1.31,0,0,0-.85.25l.94-.16c.85.53-1.28.18-1.28.56a34.92,34.92,0,0,1,5.37-.42c.29.53-3.28.15-1.41.63l-2.17-.22c1.66.83-1.32-.07.2.81,2.86.2,3.2-.21,6,0,.65-.29-.21-.44.43-.74,4.06-.51,3.19,1.41,6.18.71.77-.36,1.07-1.07,3.19-.68l-.72.63c2.76.09,1.58-.91,4.48-.45-.52.25-2.18.2-1.76.28,1.88.52,1.33-.36,2.77-.35l.3.58c3-.07,6.2-.47,9.46-.57-.18.18-.74.36,0,.55a83.12,83.12,0,0,1,12.76.48l1.51-.52c.36,0,.66.24.28.34,1.55.21.08-.33.82-.54.88,0,1.16.3.61.46,2.73-.44,7.78-1,10.66-.42l-.57.16c2.25.19,2.53-1.08,4.61-.61l-.4.09c4.87.19,10.24-.3,13.95.36.71-.68,4.82.21,5.13-.7a32.6,32.6,0,0,0,5.89.77c1.05,0,1.56-.56,2.85-.66l0,.42,1.76-.47.93.47,1.21-.13c-.48,0-1-.16-.95-.28a12.38,12.38,0,0,1,4.66.37l4.48-.42c-.1.15-.85.21-1.45.32,2.39-.42.44.36,2.63,0-.29-.07.16-.2.21-.27a32.37,32.37,0,0,0,5.41,0l-.35.22c3.32,0,7-.27,10.73-.33-1.34-.06-1-.38.06-.42l.44.26c.7-.17-1.15-.09.3-.31,1.4,0,.94.29.14.39l1.69-.12c.1.08-.3.12-.4.22.7-.16,2.92.19,3.92-.09l.1.07,8.45-.2c.06-.19,1.25-.16,2.15-.31,2.23,0,4.71.16,7.39.14,1.89-.09.55-.15,1.4-.25.14.16,2.83.14,1.43.25,3.23,0,4.12,0,8.2-.15-.44-.07-.94-.1-.68-.15a4.38,4.38,0,0,1,1.58.14l-.2,0c4.58-.24,10.57.52,14.21.21l-.2,0,3.78-.16c1.74.05-1,.13.24.25,4.08-.26,6.45.13,9.81,0,2.6.68,9.22.1,12.73.63l-.2-.18c.9-.16,1.09.13,1.76.18-.09-.14-1-.18-.42-.27,7.68-.1,15.86.62,23.73,1.08,2.89.15,1.64-1.3,5.27-.62l-1,.48c5.81-.49,11.89.26,17.58-.23-.34.12-.35.29-.91.28,1.21.43,4.45.08,4.47-.26.89,0,.2.31.75.49,1.21.26,3-.51,3.67-.08.11.07-.34.13-.56.16.78-.19,3.66.1,2.91-.41,2.13.26,4.08-.19,5.79.12,1.11-.56,3.65.31,4-.5-.16.84,3.74.72,5.09.32-.45.26,1.17.28.65.64,1.54,0,2.95-.15,2.68-.6,2.84,1.08,5.71-.81,7.31.57,4.57-.44,8.81-.75,12.93-1-.15.93-4.55.07-4.38,1,3.91-.34,6.16-1.13,10-.89,1,.13-.57.41-.91.56,3.9-.36,7.55.13,11-.38,0,.09-.38.19-.74.26.69,0,1.59.14,1.52-.29l-.67.11c-1.09-.63,2.72-1.32,2.84-1.65-1.16,1.25,3.43.32,1.58,1.91.46-.09,1-.29.92-.59.67.09.88.26.2.59,2.45-.23,1.58-.7,3.8-.69,0,.21-.45.3-.68.55a8.22,8.22,0,0,1,4.13-.65c-.12.13.1.29-.46.29,3.23-.07,5.5-1.11,9-.71-1,.92,1.21.3,1.39,1.1l1.91-.24-.77-.39c1.67,0,3.14-.57,4.57-.31L393,4.86l3.12-.16-1.77-.3c1.69-.41-.18-1,2-.78-.45.08,1.66,0,2.53.47h0a5.92,5.92,0,0,1,2.9-.32c.32.25-.26.86-.05,1,.81-.66,3.9-.2,4.93-.89-.34.16-.36.57-.25.65l.69-.53c.77.17.88.25.76.57,2.32.08-.74-1,2-.56-.21,0-.11.12-.56.2,2.77.2,5.35-.34,7.89-.1.75.74-2.22.19-1.36.82,3.66-.17,7.59-.93,11.13-.77l-.66-.08c.49-1,2.64.49,4.44,0-.44.08-.58.56-.46.45,2.43.14,5-.29,8.65-.6l-.46.25c1.44.2,3.77.09,5.32.19.46-.24,1.34-.21.81-.54a18.55,18.55,0,0,0,6.86.23,20.27,20.27,0,0,1,6.46,0c-.5,0-1.2.2-.8.19l3.6-.22c-.28-.34-.47-.21-1.22-.47a6.84,6.84,0,0,1,2.36-.37c-1.62.23,0,.55.72.73-.12-.1.12-.22.06-.32,1.88.58.31-.68,2.88-.28l-.13.17a17.92,17.92,0,0,1,2.88-.27c.43.36-1,.17-1.09.48,1.46,0,2.88-.7,4.2-.35-.62.1-1.51.11-2.13.21a8.08,8.08,0,0,0,2.67.36h-.1l2.46.15-.63-.1c1.83-.89,3.72-.2,6.17-.75-2.38.51-.39.3-.57.65.62.09,1.58.18,1.3.29,1.17-.3,1.94.17,3.58-.24.07.1,1.24,0,1,.25,1.51-.11-.36-.17-.23-.31,2.33-.35,5.47.31,8.82-.17,2.88-.21,3.42-.47,6.09-.59.91.11-.74.27-.74.27a30.19,30.19,0,0,0,3.93,0c-.28.06,0,.1.43.17a11.75,11.75,0,0,1,2.19-.16,6.62,6.62,0,0,1-1.1.25c1.3-.08,2.58-.2,3.93-.26.35.08-.81.14-1.29.22,1.51-.08,3.92-.16,4.39-.28l-1,0c.55,0,.28.1-.13.13a4.65,4.65,0,0,1-1.94-.07l1,0c-1-.29-3.85.06-5.78.08l.81-.27-2,.23c-.42-.07-.71-.23.24-.27-1.38-.15-1.22.1-2.41-.07-.13,0-.07,0,0,0l-1.35.09c.26-.07-.23-.23.6-.17-2.42-.22-3.91.22-4.82-.05l.2,0c-3.36.1-.32.25-2.84.58l-1.7-.71-.33.29c-.35,0-1,0-.91-.16-1.29.2.22.13-.53.32-1.67-.28-4.6.14-5-.39-.6.25,1.6.2-.19.37-.51-.57-2.06.1-3.58-.18.46-.31,1.91-.13.38-.42-.92.53-3-.14-4.26-.06-.06.45-2.79.17-4.95.31.13-.16-4.07-.29-6.08-.5l.06-.09c-.39.52-2.46.41-4,.51.06-.32.33-.45,1.15-.58l-1.42,0a4.41,4.41,0,0,1-1.7.32l.36-.41c-1.89,0-3.8.46-6.23.15-.14.42,1.93,1.13-.64,1.41-.1-.22-.19-.6.48-.69a3.67,3.67,0,0,1-1.23.09l1-.37c-1.11-.17-.58.31-1.46.27,0-.32-.66-.23-.53-.48a4.5,4.5,0,0,0,1.11,0,7.62,7.62,0,0,1-2.6-.51c.08.18,0,.43-.73.47-1.89,0-.65-.4-1.75-.58-.46.23-1.66,0-1.69.48a1.16,1.16,0,0,1-.87-.39c-1,.22-4.57,0-3.47.59l.25,0-.16,0h0c-3.2.51-6.65-.33-9.83-.12V2.23c-1.9.2-4.23.1-5.58.5-.56,0-1.32-.35-1.08-.57a9.83,9.83,0,0,1-3.71,0c1.46-.33-.51-.3,1.49-.24-1.88-.17-2.31-.49-4.33,0,.69-.49-1.42-.64-2.32-.49l1.32.37a25.49,25.49,0,0,1-2.78,0l.48-.67c-3.85-.85-7,1.36-9.88,0-1,.47,2.09.35,1.18.9-1.78-.09-3.62-1.1-4.18-1.1-2.43-.4-2.27,1-4.81.73.33.25.63.92-1.27,1.16-1.77-.1-2.18-1.06-1.06-1.26.43,0,.63.06.61.14.58-.09,1.33-.19.63-.47l-.23.25c-.88-.26-3.33-.24-2.75-.65-1.34.24-.58.41.42.55-2.28-.38-3.56,0-5.9-.28.37.15.71.44.34.44-3.44-.32-1.51.48-3.84.59-1.32-.39.47-.93-1.87-.6-1.43-.27-.3-.68.27-.89-2.14.49-4-.32-5.22-.41L378.29,0a9.49,9.49,0,0,1-1.79.12l.65.51c-.66-.09-1.22-.09-1.21-.3-.68.33.52.85-.83,1.3-.88-.26-2.68.28-3-.39,2.77.22-.3-.68,2-.79a5.83,5.83,0,0,1-1.67,0c-.09-.08.1-.14.28-.18-2.65-.6-1.22.76-4,.75.35-.38-.63-.71-1.08-.63,1.11,0,.53.63-.49.92-1.76-.29-1.91.23-2.83.2l1.05.13c-.36.38-1.24.33-2.47.45-.1-.29,1.12-.2.68-.33-1.36.66-3.08-.67-5-.22-.88-.25-.09-.71-.86-.87-2.13.49-2.31-.5-4.55-.09.65.5.76.38-.81.87l3.68-.37-2.37.73c1.12,0,2.35-.32,3-.24-1.12.42-1,.29-.47.7-1.52-.74-3,.45-4.77,0l0-1.23c-2.64-.52-4.7.65-8.13.37l1.11.2c-.46.48-2.12.08-3.23.27.1-.39-.59-.53-1.07-.78.06.3-2.51,0-2.82.78l-1.53-.51c-2.77-.18-3.16,1.12-5.83,1,.81-.42-.4-.68,1.38-1-.89,0-1.69-.06-1.7.2-.52-.23-2.47.53-3.29.17-.37.17-.49.56-1.49.53-.11-.07,0-.18,0-.18,0,.18-1.56.26-.69.67-2.74-1.15-7.65.09-10-.87-1.94.13-4.27.26-6,.29.12-.1,0-.17.34-.14-2.43-.31-1.49,1-4.26.66-1.41-.55,1.47-.31.59-.52-.38-1.13-3.33.17-5.2-.46l.46-.07c-1.43-.36-3.47.45-5.8.39,0,0,.11-.1,0-.16a33.6,33.6,0,0,1-6.84.9c.7-.4,1-.22.59-.62-1,.07.3.65-1.7.77-.65-.22-2.1-.39-2.29-.8L286,2c-1-.53-2.44.05-3.44,0l.13-.23c-2.89.12-2.93.68-6,.66l.32.16c-1.7.55-1.42-.28-3.12.12l-.51-.52c-1.12.14-3.92.54-5.93.64A49.1,49.1,0,0,1,272.37,2a22.41,22.41,0,0,0-4.35.35,6,6,0,0,1,1.45-.11,19.2,19.2,0,0,1-5.37.6c.39-.89-5.77-.17-7.37-.78-3.92.35-7.77,0-12.33.14,1.62.49-1.33,0-1.05.55a9.24,9.24,0,0,1-1.57,0l-3.22-.26c-.76-.13,1-.12.92-.23-2.33,0-1-.19-2.52-.29.32.17-.81.26-2.13.21l1.86.19c-3.25.27-2.81-.34-6.08-.07l1-.15c-1.68.11-6.2.08-7.85.41-.3,0-.69-.15.05-.18-4,0-9,.37-12.07.19l.31-.09a13.31,13.31,0,0,1-2.25.08s.3-.09,0-.1a26.07,26.07,0,0,1-3,.11l.85-.1c-3.92-.12-6,.24-9.3.29,0-.27-3.08-.38-4.62-.44l.06,0c-4.57-.09-7.76.15-12,.24-2.63-.41-8.89-.3-13.11-.65.64.09-.11.33-.85.36-1-.11-2.74.27-2.58-.15l.35,0c-.75-.43-2.78-.38-4.37-.43l-.26.59a32.75,32.75,0,0,0-7.28-.42c-2.49,0-4.74.14-5.87-.36-1,.16-2.24.13-3.24.3l.06-.41c-2.78-.16-4.17-.26-7.6-.22l.7-.3c-1.94-.08-2.45,1.24-4.23,1.25L133,1.4c-3.38,0-6.8-.72-10.14-.09.06-.11.16-.32.71-.34-1.59,0-6.15-.57-5.58.47,0-.67-3.48-.09-5.31.21l.29-.5a8.48,8.48,0,0,1-3.74,1c-.51-.07-.45-.41.23-.28-1.7-.26-1.33.48-3.38.21l.76-.32a4,4,0,0,0-2.57.51c-1.1.2-3.31-.12-3.57-.57a3,3,0,0,1-2.22.51c-.14-.17.23-.27.42-.33-2.92-.33-4.34.59-6.35.11a.43.43,0,0,0-.34-.29c2.32,0,4.19,0,4,.06,0-.46-1.88-.53-.39-1.17-1.5.36-4.08,1.11-5.9.91a1.07,1.07,0,0,1-.25-.16l.19-.05a3.57,3.57,0,0,0-1.15.08,13.2,13.2,0,0,0-1.51-.13C87,.86,85.06,1.05,84.12,1c.08.48-1.15.41,0,.8-.15,0,.18-.06.8-.08a2.07,2.07,0,0,0,.4-.05l-.07,0,2.33,0A4.11,4.11,0,0,1,85,1.9a14.69,14.69,0,0,1-1.3.79C82.45,2,80,1.67,79.64,1.27c-2.85.29-6.72.24-8.52,1.1-.81.12-.93-.24-1.23-.37a8.73,8.73,0,0,0,1.27-.2c-1.62.23-4.8.12-5.19.7-2-.25,1.15-.54-1.66-.42l.38-.18a22.88,22.88,0,0,0-7.33.3,23.84,23.84,0,0,1-7.79.11,1.75,1.75,0,0,1,.73.17c-3.5-.2-7.1,0-10.69,0S32.45,2.68,29,2.46a11.52,11.52,0,0,0-3.37.34l-.42-.27-2.05.34c-2.9.21-5-.52-8.69-.09l.47.13a34.55,34.55,0,0,1-3.95,0A2.62,2.62,0,0,1,10,3l0-.08-3.24.18c-2.51,0,.39-.28-3.27-.18C2.13,3-.39,3.11.12,3.11a11.46,11.46,0,0,1,1.45.05l-1.25,0c-.23.12-1.18.14,1.87.35H4.33l.68.1L3.22,3.56a15.16,15.16,0,0,0,2.38,0,5.6,5.6,0,0,0,.9.13c.69,0,1.39-.08,2.09-.13.25.1-.94.14.46.24,1-.07-.94-.23.69-.26a5.5,5.5,0,0,0,1.91.16c.17.07-.08.11-.55.13,1.06,0,2.81.05,3.36-.09,1.07.2,3.6,0,3.49.36a22.87,22.87,0,0,1,2.86-.21c-1.79.39,3.66.11,3.19.6,1.32-.39,4.78,0,7.12-.27a1.72,1.72,0,0,1-.6.09,18.9,18.9,0,0,1,2.55.35c.17-.42,2.23-.48,3.33-.74,1.62.46-1,.51-.47.93-.08-.36,2.81-.3,2.26-.63,1.23.3,1.06.16,1.7.56.22-.59,1.15-.07,2.18-.43,1.79.33.46.59,2.42.44C45.43,5.06,43.68,5.24,43.68,5.24Zm46.74-.72h0l-1,0Zm3.93,0c-.48,0-1.08,0-1.71,0-.14-.18,0-.35.41-.34C92.83,4.27,93.76,4.37,94.35,4.52ZM86,1.12c.62-.08.83,0,.91.12l-1.09.06s0,0-.07.06A.64.64,0,0,1,86,1.12Z"/><path class="cls-1" d="M84.92,1.76l-.26,0a2.93,2.93,0,0,0,.37.1l.22-.15Z"/><path class="cls-1" d="M441,2.47h-.08a.54.54,0,0,1,.17.07Z"/><polygon class="cls-1" points="148.58 4.96 148.57 4.86 148.23 4.95 148.58 4.96"/><path class="cls-1" d="M462.6,4a.68.68,0,0,0,.28.1S462.74,4,462.6,4Z"/><path class="cls-1" d="M471.94,4l1.32.11C472.69,4.05,472.27,4,471.94,4Z"/><path class="cls-1" d="M479.12,4.08a.41.41,0,0,0,.15-.14h0Z"/><path class="cls-1" d="M364.89,5.5a1.27,1.27,0,0,0-.28,0C364,5.64,364.41,5.6,364.89,5.5Z"/><path class="cls-1" d="M398.89,4.09a9.84,9.84,0,0,1-1.1.28C398.4,4.42,398.87,4.43,398.89,4.09Z"/><path class="cls-1" d="M326.93,5.91h-.23Z"/><path class="cls-1" d="M396.21,4.37a4.18,4.18,0,0,0,1.58,0A6,6,0,0,0,396.21,4.37Z"/><path class="cls-1" d="M510.26,3.61h.35s0,0,0,0Z"/><path class="cls-1" d="M510.65,3.58l.39,0Z"/><path class="cls-1" d="M511.84,3.51l-.8.05A5.88,5.88,0,0,0,511.84,3.51Z"/><path class="cls-1" d="M500.75,3.73l-.11.08C500.7,3.79,500.74,3.77,500.75,3.73Z"/><path class="cls-1" d="M497.86,3.81c.69,0,1.73.13,2.69.06l.09-.06C500.19,3.93,498.52,3.67,497.86,3.81Z"/><path class="cls-1" d="M485.8,2.69l2.42.11c-.42-.11-1-.27.12-.28C485.29,2.15,489,2.77,485.8,2.69Z"/><path class="cls-1" d="M478.29,2.44c1.3,0,0-.19,0-.26C477.52,2.28,477.32,2.31,478.29,2.44Z"/><path class="cls-1" d="M424,2l.13-.49C423.15,1.53,424.14,1.66,424,2Z"/><polygon class="cls-1" points="413.64 4.57 414.62 4.88 415.09 4.41 413.64 4.57"/><polygon class="cls-1" points="407.52 0.85 407.95 0.78 406.28 0.96 407.52 0.85"/><path class="cls-1" d="M316.37,1.27l.3.58C317.35,1.74,317.49,1.09,316.37,1.27Z"/><path class="cls-1" d="M277,2.18a3.76,3.76,0,0,0-2.21-.11C275.69,2.09,276.57,2.25,277,2.18Z"/><polygon class="cls-1" points="159.02 1.75 159.81 1.65 158.32 1.71 159.02 1.75"/></g></g></svg>